<svg width="500" height="500" viewBox="0 0 256 304" xmlns="http://www.w3.org/2000/svg" preserveAspectRatio="xMinYMin meet"><path d="m 115 270.306 c -14.32 -6.19 -27.72 -21.922 -27.752 -38.019 c -0.039 -17.55 11.083 -32.45 24.916 -42.242 c -1.663 6.283 -2.57 12.03 1.55 17.65 c 3.83 5.225 10.538 7.764 16.872 6.386 c 14.8 -3.24 15.479 -19.51 6.705 -28.989 c -8.675 -9.387 -17.067 -19.99 -13.765 -33.603 c 1.653 -6.824 5.843 -13.216 11.151 -17.785 c -4.08 10.722 7.514 21.296 15.153 26.563 c 13.251 9.138 27.79 16.044 39.974 26.756 c 12.816 11.258 22.28 26.48 20.369 44.135 c -2.071 19.136 -17.277 32.445 -34.333 39.164 c 36.042 -7.955 73.283 -35.928 74.046 -75.9 c 0.632 -32.885 -21.927 -58.193 -49.872 -72.682 l -1.46 -0.797 c 0.767 1.861 1.018 3.444 0.989 4.861 c 0.25 -1.045 0.42 -2.119 0.468 -3.227 a 15.728 15.728 90 0 1 -0.512 3.9 l 0.044 -0.673 a 16.383 16.383 90 0 1 -2.069 4.931 l 0.41 -0.441 c -5.575 9.247 -20.668 11.255 -28.124 1.68 c -11.986 -15.402 0.251 -32.008 1.963 -48.318 c 2.143 -20.441 -10.676 -40.285 -26.57 -52.16 c 8.754 14.161 -2.779 32.896 -12.006 43.37 c -8.947 10.153 -19.828 18.63 -29.705 27.855 c -10.61 9.908 -20.81 20.345 -29.531 31.974 c -17.442 23.276 -28.12 52.55 -20.273 81.588 c 7.842 29.018 32.978 47.49 61.363 54.022" fill="#EE4323"/></svg>