<svg width="800px" height="800px" viewBox="0 0 26 26" xmlns="http://www.w3.org/2000/svg">
  <path d="M 20 6 V 20 H 6 V 6 H 20 m 0 -2 H 6 A 2 2 0 0 0 4 6 V 20 a 2 2 0 0 0 2 2 H 20 a 2 2 0 0 0 2 -2 V 6 a 2 2 0 0 0 -2 -2 Z M 13.47 11.52 a 2.42 2.42 0 0 1 -0.79 1.94 a 3.39 3.39 0 0 1 -2.26 0.67 H 9.71 v 2.8 H 8 V 9.07 H 10.55 a 3.32 3.32 0 0 1 2.17 0.62 A 2.23 2.23 0 0 1 13.47 11.52 Z M 9.71 12.77 h 0.55 a 1.86 1.86 0 0 0 1.15 -0.3 a 1.09 1.09 0 0 0 0.38 -0.89 a 1.08 1.08 0 0 0 -0.32 -0.86 a 1.49 1.49 0 0 0 -1 -0.28 H 9.71 Z M 17.4 10.81 a 2.23 2.23 0 0 1 0.56 0 l -0.13 1.53 a 2.14 2.14 0 0 0 -0.48 -0.05 a 1.73 1.73 0 0 0 -1.22 0.4 a 1.48 1.48 0 0 0 -0.44 1.13 v 3.06 H 14.05 v -6 h 1.24 l 0.24 1 h 0.08 a 2.19 2.19 0 0 1 0.76 -0.81 A 1.83 1.83 0 0 1 17.4 10.81 Z"/>
</svg>