<svg width="800px" height="800px" viewBox="0 0 26 26" xmlns="http://www.w3.org/2000/svg">
  <path d="M 20 6 V 20 H 6 V 6 H 20 m 0 -2 H 6 A 2 2 0 0 0 4 6 V 20 a 2 2 0 0 0 2 2 H 20 a 2 2 0 0 0 2 -2 V 6 a 2 2 0 0 0 -2 -2 Z M 13.11 11.47 a 2.41 2.41 0 0 1 -0.8 1.94 a 3.36 3.36 0 0 1 -2.25 0.67 H 9.35 v 2.79 H 7.68 V 9 H 10.19 a 3.32 3.32 0 0 1 2.17 0.62 A 2.22 2.22 0 0 1 13.11 11.47 Z M 9.35 12.72 h 0.54 A 1.82 1.82 0 0 0 11 12.41 a 1 1 0 0 0 0.38 -0.88 a 1.08 1.08 0 0 0 -0.32 -0.87 a 1.51 1.51 0 0 0 -1 -0.28 H 9.35 Z M 18.32 15.09 a 1.68 1.68 0 0 1 -0.64 1.41 a 3.2 3.2 0 0 1 -1.92 0.48 a 6 6 0 0 1 -1.12 -0.09 a 4 4 0 0 1 -0.87 -0.26 V 15.28 a 6.52 6.52 0 0 0 1 0.36 a 4.58 4.58 0 0 0 1 0.14 c 0.59 0 0.89 -0.17 0.89 -0.51 a 0.44 0.44 0 0 0 -0.12 -0.32 a 1.5 1.5 0 0 0 -0.4 -0.27 l -0.78 -0.36 a 4.61 4.61 0 0 1 -1 -0.54 a 1.55 1.55 0 0 1 -0.47 -0.56 a 1.89 1.89 0 0 1 -0.15 -0.79 a 1.44 1.44 0 0 1 0.62 -1.24 a 3.05 3.05 0 0 1 1.76 -0.44 a 4.89 4.89 0 0 1 2.11 0.48 l -0.49 1.18 a 8.28 8.28 0 0 0 -0.84 -0.32 a 2.72 2.72 0 0 0 -0.8 -0.12 c -0.49 0 -0.73 0.13 -0.73 0.39 a 0.46 0.46 0 0 0 0.24 0.38 a 5.56 5.56 0 0 0 1 0.48 a 5 5 0 0 1 1 0.53 a 1.59 1.59 0 0 1 0.48 0.57 A 1.68 1.68 0 0 1 18.32 15.09 Z"/>
</svg>