<svg fill="#000000" width="800px" height="800px" viewBox="0 0 652 652" xmlns="http://www.w3.org/2000/svg">
<path fill-rule="nonzero" d="M 337.8 111.67 c -1.25 -1.23 -2.67 -1.84 -4.28 -1.84 c -0.88 0 -1.65 0.13 -2.29 0.4 c -0.67 0.29 -1.33 0.75 -1.96 1.39 L 315.75 125.1 a 6.44 6.44 0 0 1 -8.22 0.72 c -1.55 -0.99 -3.2 -1.97 -4.95 -2.91 c -1.87 -1 -3.69 -1.91 -5.48 -2.73 c -1.87 -0.85 -3.78 -1.66 -5.7 -2.4 c -1.72 -0.67 -3.68 -1.37 -5.84 -2.08 c -2.72 -0.89 -4.44 -3.42 -4.44 -6.14 V 88.91 c 0 -0.91 -0.14 -1.71 -0.42 -2.39 c -0.26 -0.64 -0.7 -1.27 -1.3 -1.88 c -0.6 -0.6 -1.23 -1.04 -1.88 -1.3 c -0.67 -0.27 -1.48 -0.41 -2.39 -0.41 h -25.92 c -0.84 0 -1.58 0.13 -2.21 0.39 c -0.68 0.28 -1.36 0.75 -2.03 1.4 c -0.59 0.59 -1.03 1.21 -1.3 1.84 c -0.27 0.67 -0.4 1.46 -0.4 2.35 v 18.91 c 0 3.18 -2.29 5.81 -5.31 6.36 c -2.01 0.48 -3.9 0.99 -5.66 1.53 l -0.3 0.08 c -1.81 0.57 -3.63 1.2 -5.45 1.91 l -0.33 0.12 a 96.76 96.76 0 0 0 -5.25 2.24 c -1.89 0.88 -3.65 1.76 -5.27 2.64 c -2.55 1.39 -5.62 0.87 -7.59 -1.06 l -15.3 -15.11 c -0.49 -0.46 -1.01 -0.83 -1.57 -1.07 c -0.59 -0.26 -1.31 -0.4 -2.16 -0.4 c -0.83 0 -1.58 0.15 -2.23 0.42 c -0.71 0.31 -1.41 0.8 -2.08 1.45 l -18.1 18.14 c -1.23 1.26 -1.84 2.68 -1.84 4.3 c 0 0.88 0.13 1.65 0.4 2.29 c 0.29 0.66 0.75 1.32 1.39 1.95 l 13.48 13.52 a 6.44 6.44 0 0 1 0.72 8.22 c -0.99 1.55 -1.97 3.21 -2.91 4.95 c -1 1.87 -1.91 3.7 -2.73 5.48 c -0.85 1.87 -1.66 3.78 -2.4 5.7 c -0.67 1.72 -1.37 3.68 -2.08 5.84 c -0.89 2.72 -3.42 4.44 -6.14 4.44 l -20.65 0.01 c -0.91 0 -1.71 0.13 -2.39 0.41 c -0.67 0.27 -1.3 0.7 -1.87 1.28 l -0.03 0.02 c -0.58 0.58 -1 1.21 -1.28 1.88 c -0.27 0.68 -0.41 1.48 -0.41 2.39 v 25.92 c 0 0.84 0.13 1.58 0.39 2.21 c 0.28 0.68 0.74 1.35 1.38 2.01 c 0.59 0.6 1.22 1.03 1.87 1.31 l 0.27 0.11 c 0.58 0.21 1.27 0.31 2.07 0.31 h 18.91 c 3.17 0 5.81 2.28 6.36 5.3 c 0.48 2.01 0.99 3.9 1.53 5.67 l 0.08 0.29 c 0.56 1.81 1.2 3.63 1.91 5.45 c 0.69 1.8 1.49 3.71 2.39 5.7 c 0.92 2.03 1.81 3.88 2.66 5.51 c 1.34 2.55 0.78 5.61 -1.17 7.54 l -15.05 14.99 c -0.47 0.49 -0.83 1.02 -1.07 1.58 c -0.26 0.59 -0.4 1.31 -0.4 2.15 c 0 0.84 0.15 1.59 0.42 2.23 c 0.31 0.72 0.8 1.42 1.46 2.09 l 18.04 18.25 c 0.63 0.58 1.3 1.01 1.98 1.28 c 0.7 0.27 1.5 0.41 2.41 0.41 c 0.89 0 1.7 -0.14 2.41 -0.42 l 0.23 -0.09 c 0.61 -0.26 1.18 -0.65 1.72 -1.15 l 13.35 -13.56 c 2.29 -2.33 5.91 -2.55 8.46 -0.65 c 1.41 0.9 3.01 1.83 4.76 2.78 c 1.87 1.01 3.7 1.91 5.48 2.73 c 1.87 0.86 3.78 1.66 5.7 2.41 c 1.72 0.66 3.68 1.36 5.84 2.07 c 2.72 0.9 4.44 3.43 4.44 6.14 v 20.65 c 0 0.91 0.14 1.71 0.42 2.39 c 0.26 0.65 0.7 1.28 1.3 1.88 c 0.6 0.6 1.24 1.04 1.88 1.3 c 0.68 0.28 1.48 0.42 2.39 0.42 h 25.92 c 0.84 0 1.58 -0.14 2.21 -0.4 c 0.68 -0.28 1.36 -0.75 2.03 -1.4 c 0.58 -0.58 1.01 -1.2 1.28 -1.85 l 0.12 -0.26 c 0.2 -0.58 0.31 -1.28 0.31 -2.08 v -18.91 c 0 -3.17 2.28 -5.81 5.29 -6.36 c 2.01 -0.48 3.92 -0.99 5.68 -1.53 l 0.29 -0.08 c 1.81 -0.56 3.64 -1.2 5.45 -1.9 c 1.8 -0.69 3.7 -1.49 5.69 -2.39 c 2.04 -0.92 3.88 -1.81 5.51 -2.67 a 6.455 6.455 0 0 1 7.55 1.17 l 14.76 14.8 c 0.56 0.58 1.16 1.02 1.81 1.3 l 0.31 0.15 c 0.54 0.18 1.18 0.27 1.93 0.27 c 0.87 0 1.63 -0.14 2.27 -0.42 c 0.65 -0.28 1.25 -0.72 1.81 -1.3 l 18.4 -18.19 c 0.58 -0.64 1.01 -1.3 1.28 -1.99 c 0.27 -0.7 0.41 -1.5 0.41 -2.4 c 0 -0.92 -0.14 -1.73 -0.42 -2.44 a 6.34 6.34 0 0 0 -1.24 -1.93 l -13.57 -13.34 a 6.463 6.463 0 0 1 -0.77 -8.28 c 1 -1.55 1.97 -3.2 2.91 -4.95 a 89.98 89.98 0 0 0 2.73 -5.48 c 0.85 -1.87 1.66 -3.78 2.4 -5.7 c 0.67 -1.72 1.37 -3.68 2.08 -5.84 c 0.9 -2.72 3.43 -4.44 6.14 -4.44 h 20.65 c 0.91 0 1.71 -0.14 2.39 -0.42 c 0.64 -0.26 1.27 -0.7 1.88 -1.3 c 0.6 -0.6 1.04 -1.23 1.3 -1.88 c 0.28 -0.67 0.42 -1.47 0.42 -2.39 v -25.92 c 0 -0.84 -0.14 -1.58 -0.4 -2.21 c -0.28 -0.68 -0.75 -1.36 -1.4 -2.03 c -0.59 -0.59 -1.2 -1.02 -1.85 -1.28 c -0.66 -0.28 -1.45 -0.42 -2.34 -0.42 h -18.91 c -3.22 0 -5.88 -2.36 -6.38 -5.43 a 97.061 97.061 0 0 0 -3.52 -11.19 l -0.11 -0.33 c -0.72 -1.88 -1.47 -3.67 -2.23 -5.34 c -0.83 -1.82 -1.71 -3.58 -2.64 -5.28 c -1.39 -2.55 -0.87 -5.62 1.06 -7.59 l 14.86 -15.07 c 0.61 -0.58 1.06 -1.18 1.33 -1.8 c 0.26 -0.59 0.39 -1.31 0.39 -2.16 c 0 -0.84 -0.14 -1.58 -0.42 -2.23 c -0.3 -0.71 -0.79 -1.41 -1.45 -2.08 l -18.15 -18.1 z M 109.88 444.54 h 201.47 c 18.87 0 18.7 28.55 0 28.55 H 109.88 c -18.85 0 -18.72 -28.55 0 -28.55 z m -4.23 -21.8 h 440.7 c 17.13 0 28.09 9.4 32.9 21.43 c 1.84 4.6 2.75 9.59 2.75 14.57 s -0.93 9.98 -2.77 14.57 l -0.12 0.28 c -4.9 11.97 -15.85 21.29 -32.76 21.29 H 105.65 c -17.12 0 -28.08 -9.4 -32.9 -21.44 C 70.91 468.85 70 463.85 70 458.87 c 0 -4.97 0.93 -9.95 2.76 -14.55 c 4.84 -12.12 15.82 -21.58 32.89 -21.58 z m 440.7 9.7 H 105.65 c -12.47 0 -20.45 6.78 -23.91 15.45 c -1.38 3.46 -2.08 7.22 -2.08 10.98 c 0 3.76 0.69 7.52 2.07 10.97 c 3.44 8.62 11.4 15.35 23.92 15.35 h 440.7 c 12.37 0 20.32 -6.68 23.82 -15.25 l 0.09 -0.22 c 1.38 -3.46 2.08 -7.23 2.08 -10.98 c 0 -3.76 -0.68 -7.52 -2.07 -10.97 c -3.44 -8.61 -11.39 -15.33 -23.92 -15.33 z m -60.53 -186.11 c -1.59 -1.12 -3.3 -1.51 -5.15 -1.19 c -1.84 0.32 -3.34 1.27 -4.44 2.87 l -6.03 8.55 c -2.18 -0.92 -4.45 -1.67 -6.79 -2.28 c -2.33 -0.61 -4.7 -1.08 -7.07 -1.43 l -1.95 -11.2 c -0.33 -1.89 -1.25 -3.37 -2.79 -4.45 c -1.54 -1.09 -3.25 -1.45 -5.14 -1.13 l -14.06 2.46 c -1.8 0.31 -3.25 1.23 -4.38 2.78 c -1.11 1.55 -1.5 3.25 -1.17 5.14 l 1.79 10.26 a 50.21 50.21 0 0 0 -6.46 3.29 a 51.826 51.826 0 0 0 -5.78 4 l -9.48 -6.56 c -1.51 -1.12 -3.17 -1.54 -5.03 -1.22 c -1.85 0.32 -3.32 1.29 -4.45 2.87 l -8.11 11.58 c -1.13 1.6 -1.52 3.3 -1.2 5.15 c 0.32 1.84 1.27 3.34 2.87 4.44 l 8.55 6.03 c -0.92 2.18 -1.67 4.45 -2.28 6.79 c -0.61 2.34 -1.08 4.7 -1.43 7.07 l -11.2 1.95 c -1.89 0.33 -3.37 1.25 -4.45 2.79 c -1.09 1.55 -1.45 3.25 -1.13 5.14 l 2.46 14.06 c 0.31 1.8 1.23 3.25 2.78 4.38 c 1.55 1.11 3.25 1.5 5.14 1.17 l 10.26 -1.79 a 50.21 50.21 0 0 0 3.29 6.46 c 1.24 2.06 2.58 4.04 4.02 5.92 l -6.59 9.35 c -1.11 1.5 -1.53 3.16 -1.21 5.03 c 0.33 1.84 1.29 3.31 2.87 4.44 l 11.6 8.26 c 1.59 1.03 3.28 1.37 5.13 1.05 c 1.84 -0.32 3.35 -1.22 4.46 -2.73 l 6.01 -8.69 c 2.18 0.93 4.45 1.67 6.79 2.28 c 2.34 0.62 4.7 1.08 7.07 1.43 l 1.95 11.2 c 0.33 1.89 1.25 3.37 2.8 4.45 c 1.54 1.09 3.24 1.46 5.13 1.13 l 14.06 -2.45 c 1.8 -0.32 3.25 -1.24 4.38 -2.79 c 1.11 -1.55 1.5 -3.25 1.17 -5.14 l -1.79 -10.26 a 50.21 50.21 0 0 0 6.46 -3.29 c 2.06 -1.24 4.04 -2.58 5.92 -4.02 l 9.35 6.59 c 1.5 1.11 3.19 1.53 5.08 1.2 c 1.91 -0.33 3.35 -1.3 4.39 -2.85 l 8.26 -11.61 c 1.03 -1.58 1.37 -3.28 1.05 -5.13 c -0.32 -1.84 -1.23 -3.34 -2.72 -4.46 l -8.7 -6.01 c 0.93 -2.18 1.67 -4.45 2.28 -6.79 c 0.62 -2.34 1.08 -4.7 1.43 -7.06 l 11.2 -1.96 c 1.89 -0.33 3.37 -1.25 4.45 -2.79 c 1.09 -1.55 1.46 -3.25 1.13 -5.14 l -2.46 -14.06 c -0.31 -1.79 -1.23 -3.25 -2.78 -4.38 c -1.55 -1.11 -3.25 -1.5 -5.14 -1.17 l -10.26 1.79 c -0.94 -2.17 -2.03 -4.3 -3.27 -6.39 a 51.003 51.003 0 0 0 -4.02 -5.85 l 6.57 -9.48 c 1.11 -1.5 1.54 -3.17 1.21 -5.04 c -0.32 -1.84 -1.29 -3.31 -2.87 -4.44 l -11.58 -8.12 z m -40.18 36.89 c 3.23 -0.56 6.38 -0.48 9.49 0.23 c 3.09 0.74 5.89 1.98 8.38 3.71 c 2.48 1.76 4.59 3.97 6.33 6.63 c 1.73 2.68 2.87 5.63 3.43 8.86 c 0.56 3.23 0.49 6.38 -0.23 9.49 c -0.74 3.09 -1.97 5.88 -3.71 8.38 c -1.76 2.48 -3.97 4.59 -6.63 6.33 a 23.692 23.692 0 0 1 -8.85 3.43 c -3.23 0.56 -6.39 0.49 -9.5 -0.23 c -3.09 -0.74 -5.88 -1.98 -8.38 -3.71 c -2.48 -1.76 -4.59 -3.97 -6.33 -6.63 c -1.72 -2.68 -2.86 -5.63 -3.43 -8.86 c -0.56 -3.22 -0.49 -6.38 0.23 -9.49 c 0.74 -3.09 1.98 -5.88 3.72 -8.38 c 1.75 -2.48 3.96 -4.59 6.62 -6.33 c 2.68 -1.72 5.63 -2.87 8.86 -3.43 z M 333.52 96.9 c 5.18 0 9.63 1.86 13.4 5.63 l 18.22 18.2 c 1.8 1.83 3.18 3.86 4.13 6.08 c 0.98 2.29 1.47 4.72 1.47 7.27 c 0 2.6 -0.5 5.03 -1.49 7.31 c -0.98 2.22 -2.4 4.21 -4.23 5.96 L 353.7 158.83 l 0.84 1.8 c 0.92 2.03 1.78 4.07 2.56 6.11 l 0.13 0.31 c 0.78 2.05 1.52 4.23 2.23 6.52 l 0.54 1.77 h 13.97 c 2.59 0 5.02 0.48 7.29 1.43 c 2.24 0.93 4.26 2.31 6.06 4.13 l 0.13 0.13 c 1.77 1.83 3.11 3.86 4.03 6.08 c 0.94 2.26 1.4 4.63 1.4 7.1 v 25.92 c 0 2.57 -0.46 4.98 -1.37 7.24 c -0.94 2.3 -2.32 4.35 -4.13 6.17 c -1.82 1.82 -3.88 3.19 -6.17 4.12 c -2.25 0.93 -4.67 1.38 -7.24 1.38 h -16.08 l -0.77 2.01 c -0.83 2.14 -1.74 4.28 -2.7 6.4 c -1.01 2.21 -2.05 4.3 -3.09 6.24 l -0.83 1.5 l 10.21 10.05 c 1.74 1.83 3.06 3.89 3.95 6.14 c 0.88 2.25 1.33 4.64 1.33 7.14 c 0 2.49 -0.44 4.85 -1.33 7.1 c -0.87 2.23 -2.18 4.27 -3.9 6.13 l -18.48 18.27 c -1.77 1.86 -3.78 3.29 -6.02 4.25 c -2.27 0.98 -4.73 1.48 -7.37 1.48 c -2.36 0 -4.6 -0.42 -6.72 -1.25 l -0.62 -0.23 c -2.25 -0.97 -4.27 -2.41 -6.05 -4.28 l -11.27 -11.31 l -1.9 0.88 c -1.96 0.88 -4.08 1.77 -6.35 2.64 c -2.03 0.79 -4.14 1.52 -6.32 2.2 l -2.12 0.64 v 13.93 c 0 2.38 -0.42 4.66 -1.25 6.82 l -0.18 0.47 c -0.93 2.24 -2.31 4.26 -4.12 6.06 l -0.14 0.14 c -1.83 1.76 -3.85 3.1 -6.07 4.02 c -2.27 0.94 -4.63 1.4 -7.11 1.4 h -25.92 c -2.57 0 -4.99 -0.46 -7.24 -1.38 c -2.3 -0.93 -4.35 -2.31 -6.17 -4.12 c -1.81 -1.82 -3.19 -3.87 -4.12 -6.17 c -0.93 -2.25 -1.38 -4.67 -1.38 -7.24 v -16.09 l -2.01 -0.76 c -2.14 -0.83 -4.29 -1.74 -6.4 -2.7 c -2.2 -1.01 -4.3 -2.04 -6.24 -3.09 l -1.49 -0.83 l -10.05 10.21 c -1.74 1.64 -3.66 2.91 -5.75 3.78 l -0.37 0.17 c -2.25 0.88 -4.65 1.33 -7.16 1.33 c -2.5 0 -4.87 -0.44 -7.11 -1.33 c -2.23 -0.88 -4.28 -2.18 -6.12 -3.9 l -18.39 -18.6 c -1.81 -1.84 -3.2 -3.87 -4.14 -6.08 c -0.98 -2.29 -1.47 -4.72 -1.47 -7.28 c 0 -2.6 0.5 -5.03 1.5 -7.3 c 0.9 -2.06 2.2 -3.93 3.9 -5.62 l 11.66 -11.65 l -0.88 -1.9 c -0.88 -1.95 -1.76 -4.07 -2.64 -6.35 c -0.78 -2.02 -1.52 -4.13 -2.19 -6.31 l -0.64 -2.13 H 143.91 c -2.38 0 -4.66 -0.42 -6.82 -1.25 l -0.47 -0.18 c -2.27 -0.94 -4.32 -2.35 -6.13 -4.2 l -0.03 -0.03 c -1.79 -1.85 -3.14 -3.89 -4.06 -6.1 c -0.94 -2.26 -1.4 -4.63 -1.4 -7.11 v -25.92 c 0 -2.57 0.46 -4.99 1.38 -7.24 c 0.91 -2.26 2.29 -4.31 4.12 -6.14 l 0.03 -0.03 c 1.83 -1.83 3.88 -3.2 6.14 -4.12 c 2.25 -0.92 4.67 -1.38 7.24 -1.38 H 160 l 0.76 -2.01 c 0.83 -2.14 1.74 -4.28 2.71 -6.4 c 1 -2.21 2.04 -4.3 3.09 -6.24 l 0.85 -1.54 l -9.84 -9.86 c -1.84 -1.82 -3.25 -3.87 -4.21 -6.14 a 18.49 18.49 0 0 1 -1.46 -7.28 c 0 -5.19 1.86 -9.64 5.63 -13.41 l 18.2 -18.21 c 1.83 -1.81 3.86 -3.19 6.08 -4.14 c 2.29 -0.98 4.71 -1.47 7.27 -1.47 c 2.6 0 5.03 0.51 7.31 1.5 c 2.05 0.9 3.92 2.2 5.61 3.9 l 11.82 11.64 l 1.74 -0.83 c 1.8 -0.83 3.8 -1.67 6.03 -2.54 l 0.31 -0.13 c 2.03 -0.79 4.14 -1.52 6.31 -2.19 l 2.13 -0.64 V 88.91 c 0 -2.58 0.48 -5.02 1.43 -7.29 l 0.02 -0.02 c 0.94 -2.24 2.31 -4.25 4.1 -6.03 l 0.14 -0.14 c 1.83 -1.77 3.86 -3.11 6.07 -4.03 c 2.27 -0.93 4.64 -1.4 7.11 -1.4 h 25.92 c 2.57 0 4.98 0.46 7.24 1.38 c 2.3 0.93 4.35 2.31 6.17 4.12 c 1.82 1.82 3.19 3.88 4.13 6.17 c 0.92 2.25 1.38 4.67 1.38 7.24 V 105 l 2 0.76 c 2.14 0.83 4.28 1.74 6.4 2.71 c 2.21 1.01 4.3 2.04 6.24 3.09 l 1.54 0.85 l 9.86 -9.84 c 1.82 -1.84 3.87 -3.25 6.14 -4.2 c 2.31 -0.98 4.75 -1.47 7.29 -1.47 z m -52.23 54.29 c 7.02 3.02 13.11 7.11 18.2 12.2 c 5.09 5.09 9.19 11.18 12.21 18.2 l 0.21 0.55 a 57.6 57.6 0 0 1 4.28 21.8 c 0 7.58 -1.5 15.21 -4.49 22.3 l -0.02 0.05 c -2.99 7 -7.09 13.07 -12.19 18.18 l -0.02 0.02 c -5.11 5.11 -11.19 9.2 -18.18 12.21 l -0.54 0.21 a 57.612 57.612 0 0 1 -21.81 4.28 c -7.58 0 -15.21 -1.5 -22.3 -4.49 l -0.04 -0.01 c -7.03 -3.02 -13.12 -7.11 -18.21 -12.2 c -5.09 -5.09 -9.18 -11.17 -12.21 -18.19 l -0.21 -0.55 a 57.612 57.612 0 0 1 -4.28 -21.81 c 0 -7.58 1.5 -15.21 4.49 -22.3 l 0.02 -0.04 c 3 -7 7.09 -13.08 12.19 -18.18 l 0.02 -0.03 c 5.11 -5.1 11.19 -9.19 18.18 -12.21 l 0.55 -0.21 c 6.94 -2.85 14.4 -4.28 21.8 -4.28 c 7.58 0 15.21 1.5 22.3 4.49 l 0.05 0.01 z m 9.06 21.34 c -3.94 -3.94 -8.67 -7.12 -14.16 -9.48 c -5.39 -2.29 -11.3 -3.43 -17.25 -3.43 c -5.81 0 -11.57 1.09 -16.87 3.25 l -0.38 0.18 c -5.51 2.37 -10.25 5.55 -14.17 9.47 c -3.92 3.92 -7.1 8.66 -9.47 14.17 c -2.29 5.4 -3.43 11.3 -3.43 17.25 c 0 5.81 1.09 11.58 3.25 16.88 l 0.18 0.38 c 2.36 5.48 5.54 10.21 9.48 14.15 c 3.94 3.94 8.68 7.12 14.16 9.49 c 5.39 2.28 11.3 3.42 17.25 3.42 c 5.81 0 11.57 -1.08 16.87 -3.25 l 0.38 -0.17 c 5.51 -2.38 10.25 -5.55 14.18 -9.47 c 3.92 -3.93 7.09 -8.67 9.46 -14.17 c 2.29 -5.4 3.43 -11.31 3.43 -17.26 c 0 -5.81 -1.09 -11.57 -3.25 -16.87 l -0.18 -0.38 c -2.36 -5.48 -5.54 -10.22 -9.48 -14.16 z"/></svg>