<svg fill="#000000" version="1.1" id="Capa_1" xmlns="http://www.w3.org/2000/svg" xmlns:xlink="http://www.w3.org/1999/xlink" width="800px" height="800px" viewBox="0 0 599.931 599.931" xml:space="preserve">
	<path d="M 372.895 442.367 c -2.176 -1.324 -4.072 -3.099 -5.579 -5.25 c -0.696 -0.992 -1.284 -2.041 -1.771 -3.125 H 118.282 V 190.276 h 335.624 v 159.138 c 7.165 0.647 13.177 5.353 15.701 11.797 c 2.235 -1.225 4.726 -1.982 7.344 -2.213 c 1.771 -0.154 3.53 -0.044 5.236 0.293 V 129.561 c 0 -12.996 -10.571 -23.569 -23.566 -23.569 H 113.568 C 100.573 105.992 90 116.565 90 129.561 v 309.146 c 0 12.996 10.573 23.568 23.568 23.568 h 257.179 c -2.007 -4.064 -2.483 -8.652 -1.302 -13.066 C 370.126 446.67 371.304 444.354 372.895 442.367 z M 428.025 145.569 c 0 -4.806 3.896 -8.703 8.702 -8.703 h 8.702 c 4.807 0 8.702 3.896 8.702 8.703 v 9.863 c 0 4.806 -3.896 8.702 -8.702 8.702 h -8.702 c -4.807 0 -8.702 -3.896 -8.702 -8.702 V 145.569 z M 387.56 145.569 c 0 -4.806 3.896 -8.703 8.702 -8.703 h 8.703 c 4.807 0 8.702 3.896 8.702 8.703 v 9.863 c 0 4.806 -3.896 8.702 -8.702 8.702 h -8.703 c -4.806 0 -8.702 -3.896 -8.702 -8.702 V 145.569 z M 347.094 145.569 c 0 -4.806 3.897 -8.703 8.702 -8.703 h 8.702 c 4.807 0 8.703 3.896 8.703 8.703 v 9.863 c 0 4.806 -3.896 8.702 -8.703 8.702 h -8.702 c -4.805 0 -8.702 -3.896 -8.702 -8.702 V 145.569 z M 509.875 425.77 l -2.615 -14.83 c -0.353 -1.997 -2.256 -3.331 -4.255 -2.979 l -13.188 2.324 c -1.583 -3.715 -3.605 -7.195 -6.005 -10.38 l 8.614 -10.268 c 0.626 -0.744 0.931 -1.709 0.847 -2.68 c -0.086 -0.971 -0.554 -1.867 -1.3 -2.494 l -11.534 -9.68 c -0.746 -0.626 -1.713 -0.93 -2.683 -0.845 c -0.971 0.085 -1.867 0.552 -2.493 1.298 l -8.606 10.26 c -3.533 -1.8 -7.312 -3.188 -11.271 -4.104 v -13.392 c 0 -2.028 -1.645 -3.674 -3.673 -3.674 h -15.06 c -2.027 0 -3.673 1.646 -3.673 3.674 v 13.392 c -3.961 0.915 -7.736 2.304 -11.271 4.104 l -8.608 -10.259 c -1.304 -1.554 -3.62 -1.756 -5.175 -0.453 l -11.535 9.679 c -0.746 0.627 -1.213 1.523 -1.299 2.494 c -0.084 0.971 0.22 1.937 0.846 2.683 l 8.615 10.266 c -2.396 3.184 -4.422 6.666 -6.005 10.38 l -13.188 -2.325 c -1.994 -0.351 -3.901 0.982 -4.255 2.979 l -2.614 14.83 c -0.169 0.959 0.05 1.945 0.607 2.744 c 0.561 0.799 1.41 1.342 2.37 1.511 l 13.198 2.326 c 0.215 4.089 0.927 8.045 2.073 11.812 l -11.6 6.695 c -0.844 0.485 -1.459 1.289 -1.712 2.229 c -0.252 0.941 -0.119 1.943 0.367 2.787 l 7.529 13.041 c 0.485 0.844 1.289 1.459 2.229 1.711 c 0.313 0.084 0.632 0.125 0.951 0.125 c 0.639 0 1.272 -0.166 1.836 -0.492 l 11.609 -6.703 c 2.73 2.925 5.812 5.517 9.18 7.709 l -4.584 12.593 c -0.332 0.916 -0.289 1.926 0.123 2.809 s 1.157 1.566 2.072 1.898 l 14.148 5.149 c 0.406 0.148 0.832 0.224 1.257 0.224 c 0.53 0 1.063 -0.115 1.554 -0.345 c 0.883 -0.411 1.564 -1.157 1.897 -2.073 l 4.583 -12.593 c 1.965 0.238 3.965 0.361 5.994 0.361 s 4.029 -0.125 5.994 -0.361 l 4.584 12.593 c 0.332 0.916 1.016 1.662 1.897 2.073 c 0.49 0.229 1.021 0.345 1.554 0.345 c 0.424 0 0.85 -0.074 1.256 -0.224 l 14.15 -5.149 c 0.913 -0.332 1.659 -1.017 2.07 -1.898 c 0.412 -0.883 0.456 -1.893 0.123 -2.809 l -4.584 -12.591 c 3.365 -2.192 6.447 -4.786 9.18 -7.709 l 11.609 6.703 c 0.563 0.324 1.197 0.492 1.836 0.492 c 0.318 0 0.64 -0.043 0.951 -0.125 c 0.941 -0.252 1.743 -0.869 2.229 -1.711 l 7.529 -13.043 c 0.486 -0.842 0.619 -1.846 0.367 -2.787 c -0.253 -0.938 -0.868 -1.742 -1.712 -2.229 l -11.598 -6.693 c 1.146 -3.768 1.856 -7.724 2.071 -11.812 l 13.198 -2.327 c 0.96 -0.169 1.812 -0.712 2.37 -1.511 C 509.825 427.715 510.044 426.729 509.875 425.77 z M 444.184 449.336 c -11.155 0 -20.2 -9.045 -20.2 -20.201 s 9.046 -20.2 20.2 -20.2 c 11.156 0 20.201 9.044 20.201 20.2 S 455.34 449.336 444.184 449.336 z M 254.695 325.373 c 0 -4.752 -2.785 -9.117 -7.096 -11.119 l -39.455 -18.332 l 39.456 -18.334 c 4.31 -2.004 7.095 -6.368 7.095 -11.118 v -0.319 c 0 -4.21 -2.119 -8.075 -5.665 -10.334 c -1.962 -1.253 -4.247 -1.916 -6.606 -1.916 c -1.778 0 -3.563 0.391 -5.16 1.133 l -63.078 29.333 c -4.309 2.004 -7.092 6.368 -7.092 11.117 v 0.877 c 0 4.743 2.782 9.104 7.093 11.118 l 63.084 29.336 c 1.631 0.755 3.368 1.138 5.162 1.138 c 2.338 0 4.616 -0.664 6.597 -1.924 c 3.548 -2.268 5.666 -6.13 5.666 -10.335 L 254.695 325.373 L 254.695 325.373 z M 316.932 224.012 c -2.301 -3.15 -6.002 -5.03 -9.901 -5.03 h -0.314 c -5.354 0 -10.048 3.425 -11.679 8.516 L 253.478 356.27 c -1.183 3.718 -0.517 7.813 1.781 10.962 c 2.301 3.148 6.002 5.029 9.901 5.029 h 0.315 c 5.352 0 10.043 -3.426 11.672 -8.516 l 41.555 -128.762 C 319.896 231.268 319.234 227.167 316.932 224.012 z M 398.001 284.366 l -63.079 -29.333 c -1.592 -0.74 -3.374 -1.131 -5.152 -1.131 c -2.358 0 -4.644 0.661 -6.605 1.912 c -3.552 2.263 -5.671 6.127 -5.671 10.337 v 0.319 c 0 4.746 2.783 9.111 7.097 11.123 l 39.454 18.33 l -39.455 18.331 c -4.311 2.002 -7.096 6.367 -7.096 11.119 v 0.321 c 0 4.205 2.119 8.066 5.669 10.336 c 1.974 1.258 4.254 1.923 6.595 1.923 c 1.792 0 3.527 -0.383 5.169 -1.141 l 63.082 -29.336 c 4.307 -2.009 7.088 -6.371 7.088 -11.114 v -0.877 C 405.094 290.735 402.311 286.371 398.001 284.366 z"/>
			
</svg>