<svg fill="#000000"  version="1.1" xmlns="http://www.w3.org/2000/svg" xmlns:xlink="http://www.w3.org/1999/xlink"  width="800px" height="800px" viewBox="0 0 552 552" xml:space="preserve">

<path d="M 276 20.5 C 135.117 20.5 20.5 135.109 20.5 275.992 C 20.5 416.874 135.117 531.5 276 531.5 c 140.879 0 255.5 -114.626 255.5 -255.508 C 531.5 135.109 416.879 20.5 276 20.5 z M 46.287 275.992 c 0 -33.306 7.145 -64.923 19.89 -93.488 l 109.582 300.225 C 99.117 445.502 46.287 366.914 46.287 275.992 z M 276 505.722 c -22.547 0 -44.309 -3.307 -64.898 -9.361 l 68.932 -200.274 l 70.604 193.446 c 0.466 1.135 1.035 2.179 1.646 3.165 C 328.406 501.102 302.748 505.722 276 505.722 z M 307.659 168.286 c 13.827 -0.724 26.29 -2.179 26.29 -2.179 c 12.376 -1.464 10.916 -19.658 -1.468 -18.93 c 0 0 -37.207 2.919 -61.23 2.919 c -22.568 0 -60.494 -2.919 -60.494 -2.919 c -12.388 -0.728 -13.839 18.198 -1.456 18.93 c 0 0 11.715 1.455 24.095 2.179 l 35.784 98.063 l -50.277 150.767 l -83.649 -248.83 c 13.84 -0.724 26.286 -2.179 26.286 -2.179 c 12.372 -1.464 10.912 -19.658 -1.468 -18.93 c 0 0 -37.198 2.919 -61.222 2.919 c -4.309 0 -9.386 -0.108 -14.784 -0.283 C 125.141 87.457 195.745 46.274 276 46.274 c 59.8 0 114.251 22.868 155.121 60.315 c -0.989 -0.058 -1.958 -0.183 -2.978 -0.183 c -22.563 0 -38.574 19.653 -38.574 40.771 c 0 18.93 10.92 34.948 22.564 53.874 c 8.737 15.299 18.938 34.953 18.938 63.355 c 0 19.657 -7.56 42.475 -17.479 74.259 l -22.917 76.554 L 307.659 168.286 z M 391.486 474.545 l 70.163 -202.861 c 13.104 -32.77 17.47 -58.977 17.47 -82.272 c 0 -8.458 -0.558 -16.31 -1.547 -23.625 c 17.932 32.715 28.137 70.262 28.137 110.205 C 505.709 360.738 459.782 434.727 391.486 474.545 z">
</path>
</svg>