<svg fill="#000000" width="800px" height="800px" viewBox="0 -4 42 42" xmlns="http://www.w3.org/2000/svg" preserveAspectRatio="xMidYMid">
    <path d="M 35.722 25.579 C 35.137 26.894 33.628 28.085 32.211 28.348 C 32.066 28.375 28.603 29 21.01 29 L 20.99 29 C 13.398 29 9.932 28.375 9.788 28.349 C 8.371 28.085 6.861 26.894 6.275 25.578 C 6.223 25.461 5.001 22.647 5.001 17 C 5.001 11.353 6.223 8.538 6.275 8.421 C 6.861 7.105 8.371 5.915 9.788 5.652 C 9.932 5.625 13.398 5 20.99 5 C 28.603 5 32.066 5.625 32.21 5.651 C 33.628 5.915 35.137 7.105 35.723 8.42 C 35.775 8.538 37 11.353 37 17 C 37 22.647 35.775 25.461 35.722 25.579 Z M 33.893 9.23 C 33.581 8.529 32.603 7.759 31.845 7.618 C 31.813 7.612 28.386 7 21.01 7 C 13.615 7 10.185 7.612 10.152 7.618 C 9.394 7.759 8.417 8.529 8.104 9.234 C 8.094 9.255 7.002 11.829 7.002 17 C 7.002 22.17 8.094 24.744 8.106 24.77 C 8.417 25.471 9.394 26.241 10.153 26.382 C 10.185 26.388 13.615 27 20.99 27 L 21.01 27 C 28.386 27 31.813 26.388 31.846 26.382 C 32.604 26.241 33.581 25.471 33.894 24.766 C 33.904 24.744 34.998 22.17 34.998 17 C 34.998 11.83 33.904 9.255 33.893 9.23 Z M 18.541 22.846 C 18.379 22.949 18.193 23 18.008 23 C 17.842 23 17.676 22.959 17.525 22.875 C 17.206 22.699 17.008 22.364 17.008 22 L 17.008 12 C 17.008 11.637 17.204 11.303 17.521 11.127 C 17.838 10.95 18.227 10.958 18.534 11.149 L 26.553 16.105 C 26.846 16.286 27.026 16.606 27.027 16.951 C 27.028 17.296 26.852 17.618 26.56 17.801 L 18.541 22.846 Z M 19.009 13.794 L 19.009 20.189 L 24.137 16.963 L 19.009 13.794 Z"/>
</svg>